<?xml version="1.0" encoding="UTF-8" standalone="no"?>
<svg
   xmlns:dc="http://purl.org/dc/elements/1.1/"
   xmlns:cc="http://creativecommons.org/ns#"
   xmlns:rdf="http://www.w3.org/1999/02/22-rdf-syntax-ns#"
   xmlns:svg="http://www.w3.org/2000/svg"
   xmlns="http://www.w3.org/2000/svg"
   xmlns:sodipodi="http://sodipodi.sourceforge.net/DTD/sodipodi-0.dtd"
   xmlns:inkscape="http://www.inkscape.org/namespaces/inkscape"
   viewBox="0 0 393.26738 235.96043"
   height="235.96043"
   width="393.2674"
   xml:space="preserve"
   version="1.1"
   id="svg4136"
   inkscape:version="0.91 r13725"
   sodipodi:docname="XPRESS LOGO-SVG.svg"><sodipodi:namedview
     pagecolor="#ffffff"
     bordercolor="#666666"
     borderopacity="1"
     objecttolerance="10"
     gridtolerance="10"
     guidetolerance="10"
     inkscape:pageopacity="0"
     inkscape:pageshadow="2"
     inkscape:window-width="1360"
     inkscape:window-height="705"
     id="namedview4228"
     showgrid="false"
     fit-margin-top="0"
     fit-margin-left="0"
     fit-margin-right="0"
     fit-margin-bottom="0"
     inkscape:zoom="0.74452862"
     inkscape:cx="244.24908"
     inkscape:cy="111.27879"
     inkscape:window-x="-8"
     inkscape:window-y="-8"
     inkscape:window-maximized="1"
     inkscape:current-layer="svg4136" /><metadata
     id="metadata4142"><rdf:RDF><cc:Work
         rdf:about=""><dc:format>image/svg+xml</dc:format><dc:type
           rdf:resource="http://purl.org/dc/dcmitype/StillImage" /><dc:title></dc:title></cc:Work></rdf:RDF></metadata><defs
     id="defs4140"><clipPath
       id="clipPath4154"
       clipPathUnits="userSpaceOnUse"><path
         id="path4156"
         d="m 0,595.276 841.89,0 L 841.89,0 0,0 0,595.276 Z"
         inkscape:connector-curvature="0" /></clipPath></defs><g
     transform="matrix(1.25,0,0,-1.25,-281.93219,496.72916)"
     id="g4144"><g
       transform="translate(266.4595,304.0479)"
       id="g4146"><path
         id="path4148"
         style="fill:none;stroke:#ffffff;stroke-width:1.29999995;stroke-linecap:butt;stroke-linejoin:miter;stroke-miterlimit:4;stroke-dasharray:none;stroke-opacity:1"
         d="M 0,0 34.642,0"
         inkscape:connector-curvature="0" /></g><g
       id="g4150"><g
         clip-path="url(#clipPath4154)"
         id="g4152"><g
           transform="translate(308.6265,316.9443)"
           id="g4158"><path
             id="path4160"
             style="fill:none;stroke:#ffffff;stroke-width:1.29999995;stroke-linecap:butt;stroke-linejoin:miter;stroke-miterlimit:4;stroke-dasharray:none;stroke-opacity:1"
             d="M 0,0 C -5.963,-4.115 -14.959,-7.65 -25.029,-7.65"
             inkscape:connector-curvature="0" /></g><g
           transform="translate(285.1821,309.2939)"
           id="g4162"><path
             id="path4164"
             style="fill:none;stroke:#ffffff;stroke-width:1.29999995;stroke-linecap:butt;stroke-linejoin:miter;stroke-miterlimit:4;stroke-dasharray:none;stroke-opacity:1"
             d="M 0,0 C -10.07,0 -19.067,3.535 -25.028,7.65"
             inkscape:connector-curvature="0" /></g><g
           transform="translate(259.8706,291.8867)"
           id="g4166"><path
             id="path4168"
             style="fill:none;stroke:#ffffff;stroke-width:1;stroke-linecap:butt;stroke-linejoin:miter;stroke-miterlimit:4;stroke-dasharray:none;stroke-opacity:1"
             d="M 0,0 C 5.961,4.115 14.959,7.648 25.027,7.648"
             inkscape:connector-curvature="0" /></g><g
           transform="translate(284.1577,299.5693)"
           id="g4170"><path
             id="path4172"
             style="fill:none;stroke:#ffffff;stroke-width:1.10000002;stroke-linecap:butt;stroke-linejoin:miter;stroke-miterlimit:4;stroke-dasharray:none;stroke-opacity:1"
             d="M 0,0 C 10.07,0 19.066,-3.533 25.029,-7.648"
             inkscape:connector-curvature="0" /></g><g
           transform="translate(264.6792,323.1221)"
           id="g4174"><path
             id="path4176"
             style="fill:none;stroke:#ffffff;stroke-width:1.29999995;stroke-linecap:butt;stroke-linejoin:miter;stroke-miterlimit:4;stroke-dasharray:none;stroke-opacity:1"
             d="M 0,0 C 5.63,-2.918 12.858,-5.09 20.748,-5.09"
             inkscape:connector-curvature="0" /></g><g
           transform="translate(284.5708,318.0518)"
           id="g4178"><path
             id="path4180"
             style="fill:none;stroke:#ffffff;stroke-width:1.20000005;stroke-linecap:butt;stroke-linejoin:miter;stroke-miterlimit:4;stroke-dasharray:none;stroke-opacity:1"
             d="M 0,0 C 7.889,0 15.118,2.172 20.747,5.091"
             inkscape:connector-curvature="0" /></g><g
           transform="translate(295.311,329.3848)"
           id="g4182"><path
             id="path4184"
             style="fill:none;stroke:#ffffff;stroke-width:1.29999995;stroke-linecap:butt;stroke-linejoin:miter;stroke-miterlimit:4;stroke-dasharray:none;stroke-opacity:1"
             d="M 0,0 C -3.937,-1.175 -8.271,-1.902 -12.829,-1.902"
             inkscape:connector-curvature="0" /></g><g
           transform="translate(284.3179,327.4824)"
           id="g4186"><path
             id="path4188"
             style="fill:none;stroke:#ffffff;stroke-width:1.29999995;stroke-linecap:butt;stroke-linejoin:miter;stroke-miterlimit:4;stroke-dasharray:none;stroke-opacity:1"
             d="M 0,0 C -4.15,0 -8.105,0.619 -11.754,1.613"
             inkscape:connector-curvature="0" /></g><g
           transform="translate(368.3457,299.832)"
           id="g4190"><path
             id="path4192"
             style="fill:#f58735;fill-opacity:1;fill-rule:nonzero;stroke:none"
             d="M 0,0 -2.256,9.493 -8.741,0 l -10.997,0 14.474,17.718 -5.827,15.039 10.105,0 1.88,-7.144 4.793,7.144 10.104,0 L 4.089,17.577 10.198,0 0,0 Z"
             inkscape:connector-curvature="0" /></g><g
           transform="translate(380.8359,311.5605)"
           id="g4194"><path
             id="path4196"
             style="fill:#f58735;fill-opacity:1;fill-rule:nonzero;stroke:none"
             d="m 0,0 1.409,6.721 12.83,0 L 12.83,0 0,0 Z"
             inkscape:connector-curvature="0" /></g><g
           transform="translate(411.291,325.6807)"
           id="g4198"><path
             id="path4200"
             style="fill:#f58735;fill-opacity:1;fill-rule:nonzero;stroke:none"
             d="m 0,0 -1.598,-7.52 2.444,0 c 3.948,0 4.887,2.961 4.887,5.593 C 5.733,-0.329 4.559,0 2.914,0 L 0,0 Z m -3.008,-14.193 -2.491,-11.656 -8.412,0 6.955,32.757 10.669,0 c 7.19,0 11.373,-2.209 11.373,-7.613 0,-5.922 -3.76,-13.488 -14.852,-13.488 l -3.242,0 z"
             inkscape:connector-curvature="0" /></g><g
           transform="translate(439.1143,325.6807)"
           id="g4202"><path
             id="path4204"
             style="fill:#f58735;fill-opacity:1;fill-rule:nonzero;stroke:none"
             d="m 0,0 -1.362,-6.392 2.396,0 c 3.572,0 4.7,2.163 4.7,4.418 C 5.687,-0.423 4.559,0 2.351,0 L 0,0 Z m 1.786,-25.849 -1.644,8.977 c -0.612,3.384 -1.035,3.995 -2.868,3.995 l -2.772,-12.972 -8.413,0 6.956,32.757 11.279,0 c 8.13,0 11.044,-2.772 11.044,-7.331 0,-4.136 -2.396,-10.057 -9.07,-11.185 0.658,-0.423 1.88,-1.974 2.396,-3.525 0.752,-2.209 2.304,-8.271 2.821,-10.716 l -9.729,0 z"
             inkscape:connector-curvature="0" /></g><g
           transform="translate(454.9072,299.832)"
           id="g4206"><path
             id="path4208"
             style="fill:#f58735;fill-opacity:1;fill-rule:nonzero;stroke:none"
             d="m 0,0 6.955,32.757 19.27,0 -2.538,-6.908 -9.776,0 -1.175,-5.499 8.177,0 -1.409,-6.673 -8.178,0 -1.41,-6.674 11.232,0 L 19.645,0 0,0 Z"
             inkscape:connector-curvature="0" /></g><g
           transform="translate(490.7725,299.2686)"
           id="g4210"><path
             id="path4212"
             style="fill:#f58735;fill-opacity:1;fill-rule:nonzero;stroke:none"
             d="m 0,0 c -4.935,0 -8.507,1.222 -11.42,2.961 l 4.37,6.579 c 2.022,-1.363 5.311,-2.632 8.648,-2.632 3.29,0 4.84,1.222 5.216,3.008 0.33,1.457 -0.563,2.303 -2.725,2.914 L 0.47,13.816 c -4.465,1.27 -6.955,4.607 -5.969,9.259 1.363,6.486 7.661,10.81 14.992,10.81 4.559,0 8.507,-1.081 10.997,-3.008 l -5.169,-6.063 c -1.974,1.41 -4.653,2.209 -7.003,2.209 -2.162,0 -3.571,-1.034 -3.853,-2.35 -0.236,-1.081 0.282,-2.397 2.585,-3.008 l 3.195,-0.846 c 3.337,-0.892 7.896,-2.914 6.674,-8.835 C 15.274,4.136 8.507,0 0,0"
             inkscape:connector-curvature="0" /></g><g
           transform="translate(519.5361,299.2686)"
           id="g4214"><path
             id="path4216"
             style="fill:#f58735;fill-opacity:1;fill-rule:nonzero;stroke:none"
             d="m 0,0 c -4.935,0 -8.506,1.222 -11.42,2.961 l 4.371,6.579 c 2.021,-1.363 5.311,-2.632 8.648,-2.632 3.289,0 4.839,1.222 5.216,3.008 0.329,1.457 -0.564,2.303 -2.726,2.914 l -3.618,0.986 c -4.465,1.27 -6.956,4.607 -5.969,9.259 1.362,6.486 7.66,10.81 14.992,10.81 4.559,0 8.506,-1.081 10.997,-3.008 l -5.17,-6.063 c -1.973,1.41 -4.652,2.209 -7.002,2.209 -2.162,0 -3.572,-1.034 -3.854,-2.35 C 4.23,23.592 4.747,22.276 7.05,21.665 l 3.196,-0.846 c 3.337,-0.892 7.896,-2.914 6.673,-8.835 C 15.274,4.136 8.507,0 0,0"
             inkscape:connector-curvature="0" /></g><g
           transform="translate(312.7344,304.1895)"
           id="g4218"><path
             id="path4220"
             style="fill:#f58735;fill-opacity:1;fill-rule:nonzero;stroke:none"
             d="m 0,0 c 0,-15.277 -12.67,-27.666 -28.298,-27.666 -15.624,0 -28.294,12.389 -28.294,27.666 0,15.282 12.67,27.669 28.294,27.669 C -12.67,27.669 0,15.282 0,0"
             inkscape:connector-curvature="0" /></g><g
           transform="translate(271.7891,328.9287)"
           id="g4222"><path
             id="path4224"
             style="fill:none;stroke:#373535;stroke-width:0.75;stroke-linecap:butt;stroke-linejoin:miter;stroke-miterlimit:4;stroke-dasharray:none;stroke-opacity:1"
             d="m 0,0 c 3.797,1.853 8.065,2.921 12.598,2.921 4.291,0 8.342,-0.961 11.986,-2.632 M 11.755,-1.613 C 7.604,-1.613 3.649,-0.994 0,0 c -3.08,-1.502 -5.833,-3.532 -8.148,-5.978 5.629,-2.918 12.858,-5.09 20.748,-5.09 7.888,0 15.118,2.172 20.747,5.09 -2.468,2.607 -5.434,4.742 -8.763,6.267 -3.937,-1.175 -8.271,-1.902 -12.829,-1.902 z m 21.592,-4.365 c 1.672,-1.767 3.122,-3.734 4.281,-5.881 m -50.057,0 c 1.158,2.148 2.609,4.114 4.281,5.881 m -4.281,-5.881 c -2.078,-3.851 -3.267,-8.231 -3.267,-12.89 0,-15.277 12.67,-27.664 28.294,-27.664 15.629,0 28.298,12.387 28.298,27.664 0,4.658 -1.19,9.039 -3.268,12.89 -5.962,-4.117 -14.959,-7.652 -25.028,-7.652 -10.071,0 -19.068,3.535 -25.029,7.652 z"
             inkscape:connector-curvature="0" /></g><g
           transform="translate(259.4404,291.2266)"
           id="g4226"><path
             id="path4228"
             style="fill:none;stroke:#373535;stroke-width:0.75;stroke-linecap:butt;stroke-linejoin:miter;stroke-miterlimit:4;stroke-dasharray:none;stroke-opacity:1"
             d="M 0,0 C 5.962,4.115 14.959,7.648 25.028,7.648 35.099,7.648 44.095,4.115 50.057,0"
             inkscape:connector-curvature="0" /></g><g
           transform="translate(256.1533,303.5078)"
           id="g4230"><path
             id="path4232"
             style="fill:none;stroke:#373535;stroke-width:0.75;stroke-linecap:butt;stroke-linejoin:miter;stroke-miterlimit:4;stroke-dasharray:none;stroke-opacity:1"
             d="M 0,0 56.631,0"
             inkscape:connector-curvature="0" /></g><g
           transform="translate(284.3877,276.9141)"
           id="g4234"><path
             id="path4236"
             style="fill:none;stroke:#373535;stroke-width:0.75;stroke-linecap:butt;stroke-linejoin:miter;stroke-miterlimit:4;stroke-dasharray:none;stroke-opacity:1"
             d="M 0,0 0,54.538"
             inkscape:connector-curvature="0" /></g><g
           transform="translate(284.3408,331.8096)"
           id="g4238"><path
             id="path4240"
             style="fill:none;stroke:#373535;stroke-width:0.75;stroke-linecap:butt;stroke-linejoin:miter;stroke-miterlimit:4;stroke-dasharray:none;stroke-opacity:1"
             d="m 0,0 c 0,0 -13.723,-7.828 -13.723,-28.354 0,-20.53 13.761,-26.967 13.761,-26.967"
             inkscape:connector-curvature="0" /></g><g
           transform="translate(284.3789,276.6797)"
           id="g4242"><path
             id="path4244"
             style="fill:none;stroke:#373535;stroke-width:0.75;stroke-linecap:butt;stroke-linejoin:miter;stroke-miterlimit:4;stroke-dasharray:none;stroke-opacity:1"
             d="m 0,0 c 0,0 13.779,6.246 13.779,26.775 0,20.527 -13.817,28.44 -13.817,28.44"
             inkscape:connector-curvature="0" /></g><g
           transform="translate(284.3701,276.8066)"
           id="g4246"><path
             id="path4248"
             style="fill:none;stroke:#373535;stroke-width:0.75;stroke-linecap:butt;stroke-linejoin:miter;stroke-miterlimit:4;stroke-dasharray:none;stroke-opacity:1"
             d="m 0,0 c 0,0 -6.247,9.689 -6.63,26.775 0,0 1.149,22.185 6.63,27.667"
             inkscape:connector-curvature="0" /></g><g
           transform="translate(284.626,277.0605)"
           id="g4250"><path
             id="path4252"
             style="fill:none;stroke:#373535;stroke-width:0.75;stroke-linecap:butt;stroke-linejoin:miter;stroke-miterlimit:4;stroke-dasharray:none;stroke-opacity:1"
             d="m 0,0 c 0,0 6.246,9.689 6.629,26.775 0,0 -1.148,22.186 -6.629,27.668"
             inkscape:connector-curvature="0" /></g><g
           transform="translate(305.3066,285.3125)"
           id="g4254"><path
             id="path4256"
             style="fill:none;stroke:#373535;stroke-width:0.75;stroke-linecap:butt;stroke-linejoin:miter;stroke-miterlimit:4;stroke-dasharray:none;stroke-opacity:1"
             d="m 0,0 c -5.628,2.918 -13.041,5.273 -20.93,5.273 -7.888,0 -15.118,-2.171 -20.746,-5.089"
             inkscape:connector-curvature="0" /></g><g
           transform="translate(272.0771,279.377)"
           id="g4258"><path
             id="path4260"
             style="fill:none;stroke:#373535;stroke-width:0.75;stroke-linecap:butt;stroke-linejoin:miter;stroke-miterlimit:4;stroke-dasharray:none;stroke-opacity:1"
             d="m 0,0 c 3.937,1.174 8.271,1.904 12.828,1.904 4.152,0 8.305,-0.82 11.955,-1.816"
             inkscape:connector-curvature="0" /></g><g
           transform="translate(311.8828,284.8984)"
           id="g4262"><path
             id="path4264"
             style="fill:#f58735;fill-opacity:1;fill-rule:nonzero;stroke:none"
             d="m 0,0 0,-23.715 c 0,0 -13.769,-10.295 -27.795,-8.254 l 0,-7.174 -17.627,15.428 17.627,14.281 0,-6.183 c 0,0 18.998,-0.766 27.795,15.617"
             inkscape:connector-curvature="0" /></g><g
           transform="translate(311.8828,284.8984)"
           id="g4266"><path
             id="path4268"
             style="fill:none;stroke:#373535;stroke-width:0.75;stroke-linecap:butt;stroke-linejoin:miter;stroke-miterlimit:4;stroke-dasharray:none;stroke-opacity:1"
             d="m 0,0 0,-23.715 c 0,0 -13.769,-10.295 -27.795,-8.254 l 0,-7.174 -17.627,15.428 17.627,14.281 0,-6.183 c 0,0 18.998,-0.766 27.795,15.617 z"
             inkscape:connector-curvature="0" /></g><g
           transform="translate(265.4336,275.6621)"
           id="g4270"><path
             id="path4272"
             style="fill:#f58735;fill-opacity:1;fill-rule:nonzero;stroke:none"
             d="m 0,0 -23.715,0.135 c 0,0 -10.219,13.824 -8.1,27.84 l -7.173,0.039 15.528,17.54 14.18,-17.708 -6.184,0.035 C -15.464,27.881 -16.336,8.889 0,0"
             inkscape:connector-curvature="0" /></g><g
           transform="translate(265.4336,275.6621)"
           id="g4274"><path
             id="path4276"
             style="fill:none;stroke:#373535;stroke-width:0.75;stroke-linecap:butt;stroke-linejoin:miter;stroke-miterlimit:4;stroke-dasharray:none;stroke-opacity:1"
             d="m 0,0 -23.715,0.135 c 0,0 -10.219,13.824 -8.1,27.84 l -7.173,0.039 15.528,17.54 14.18,-17.708 -6.184,0.035 C -15.464,27.881 -16.336,8.889 0,0 Z"
             inkscape:connector-curvature="0" /></g><g
           transform="translate(256.7754,323.335)"
           id="g4278"><path
             id="path4280"
             style="fill:#f58735;fill-opacity:1;fill-rule:nonzero;stroke:none"
             d="m 0,0 0.134,23.716 c 0,0 13.827,10.218 27.841,8.099 l 0.04,7.174 L 45.555,23.46 27.848,9.28 27.882,15.464 C 27.882,15.464 8.89,16.336 0,0"
             inkscape:connector-curvature="0" /></g><g
           transform="translate(256.7754,323.335)"
           id="g4282"><path
             id="path4284"
             style="fill:none;stroke:#373535;stroke-width:0.75;stroke-linecap:butt;stroke-linejoin:miter;stroke-miterlimit:4;stroke-dasharray:none;stroke-opacity:1"
             d="m 0,0 0.134,23.716 c 0,0 13.827,10.218 27.841,8.099 l 0.04,7.174 L 45.555,23.46 27.848,9.28 27.882,15.464 C 27.882,15.464 8.89,16.336 0,0 Z"
             inkscape:connector-curvature="0" /></g><g
           transform="translate(304.2969,332.1494)"
           id="g4286"><path
             id="path4288"
             style="fill:#f58735;fill-opacity:1;fill-rule:nonzero;stroke:none"
             d="m 0,0 22.922,0.22 c 0,0 10.219,-14.975 8.099,-28.989 l 7.174,-0.041 -15.529,-17.539 -14.179,17.707 6.183,-0.035 c 0,0 1.666,19.787 -14.67,28.677"
             inkscape:connector-curvature="0" /></g><g
           transform="translate(304.2969,332.1494)"
           id="g4290"><path
             id="path4292"
             style="fill:none;stroke:#373535;stroke-width:0.75;stroke-linecap:butt;stroke-linejoin:miter;stroke-miterlimit:4;stroke-dasharray:none;stroke-opacity:1"
             d="m 0,0 22.922,0.22 c 0,0 10.219,-14.975 8.099,-28.989 l 7.174,-0.041 -15.529,-17.539 -14.179,17.707 6.183,-0.035 c 0,0 1.666,19.787 -14.67,28.677 z"
             inkscape:connector-curvature="0" /></g><g
           transform="translate(361.5957,291.9883)"
           id="g4294"><path
             id="path4296"
             style="fill:#f58735;fill-opacity:1;fill-rule:nonzero;stroke:none"
             d="m 0,0 -6.451,0 -1.08,-5.074 5.264,0 -0.54,-2.538 -5.264,0 -1.808,-8.53 -3.159,0 3.996,18.653 9.987,0 L 0,0 Z"
             inkscape:connector-curvature="0" /></g><g
           transform="translate(388.6997,291.9609)"
           id="g4298"><path
             id="path4300"
             style="fill:#f58735;fill-opacity:1;fill-rule:nonzero;stroke:none"
             d="m 0,0 -6.91,0 -1.053,-5.102 5.75,0 -0.54,-2.563 -5.75,0 -1.214,-5.777 7.53,0 -0.566,-2.672 -10.717,0 3.995,18.652 10.42,0 L 0,0 Z"
             inkscape:connector-curvature="0" /></g><g
           transform="translate(417.124,291.9609)"
           id="g4302"><path
             id="path4304"
             style="fill:#f58735;fill-opacity:1;fill-rule:nonzero;stroke:none"
             d="m 0,0 -6.91,0 -1.053,-5.102 5.75,0 -0.54,-2.563 -5.749,0 -1.215,-5.777 7.53,0 -0.566,-2.672 -10.716,0 3.995,18.652 10.419,0 L 0,0 Z"
             inkscape:connector-curvature="0" /></g><g
           transform="translate(443.6602,290.6924)"
           id="g4306"><path
             id="path4308"
             style="fill:#f58735;fill-opacity:1;fill-rule:nonzero;stroke:none"
             d="m 0,0 c -0.647,0.999 -1.565,1.35 -3.131,1.35 l -1.943,0 -2.889,-13.659 1.917,0 c 1.997,0 3.428,0.756 4.292,1.944 C 0,-7.908 0.595,-4.318 0.595,-2.861 0.595,-1.673 0.459,-0.729 0,0 m 0.324,-12.281 c -1.889,-1.863 -3.752,-2.565 -7.288,-2.565 l -4.696,0 3.995,18.653 4.156,0 c 2.943,0 4.616,-0.297 5.858,-1.647 1.026,-1.107 1.592,-2.564 1.592,-4.94 0,-3.131 -1.403,-7.315 -3.617,-9.501"
             inkscape:connector-curvature="0" /></g><g
           transform="translate(476.4648,291.9609)"
           id="g4310"><path
             id="path4312"
             style="fill:#f58735;fill-opacity:1;fill-rule:nonzero;stroke:none"
             d="m 0,0 -6.91,0 -1.053,-5.102 5.75,0 -0.54,-2.563 -5.749,0 -1.215,-5.777 7.53,0 -0.566,-2.672 -10.716,0 3.995,18.652 10.419,0 L 0,0 Z"
             inkscape:connector-curvature="0" /></g><g
           transform="translate(500.0615,291.9883)"
           id="g4314"><path
             id="path4316"
             style="fill:#f58735;fill-opacity:1;fill-rule:nonzero;stroke:none"
             d="m 0,0 -1.971,0 -1.241,-5.885 1.512,0 c 1.619,0 2.483,0.19 3.212,0.783 0.783,0.622 1.377,1.782 1.377,2.808 C 2.889,-0.675 1.971,0 0,0 m 0.648,-7.909 c -0.081,-0.027 -0.162,-0.027 -0.27,-0.027 0.567,-0.512 1.134,-1.295 1.7,-2.402 0.675,-1.323 2.133,-5.237 2.268,-5.669 l -3.374,-0.269 c -0.189,0.485 -0.972,2.59 -1.215,3.212 -1.026,2.752 -1.728,3.698 -2.321,4.426 -0.378,0.459 -0.648,0.54 -1.134,0.54 l -1.728,-8.044 -3.103,0 3.967,18.653 5.723,0 c 3.347,0 5.047,-1.486 5.047,-4.185 0,-3.562 -2.537,-5.911 -5.56,-6.235"
             inkscape:connector-curvature="0" /></g><g
           transform="translate(534.7793,291.0439)"
           id="g4318"><path
             id="path4320"
             style="fill:#f58735;fill-opacity:1;fill-rule:nonzero;stroke:none"
             d="m 0,0 c -1.296,0.972 -2.511,1.376 -4.13,1.376 -2.024,0 -3.59,-1.188 -3.59,-2.699 0,-1.079 0.459,-1.754 1.997,-2.322 L -3.645,-4.4 c 2.349,-0.864 3.402,-2.268 3.402,-4.427 0,-3.725 -3.185,-6.748 -8.448,-6.748 -2.376,0 -4.158,0.594 -5.696,1.593 l 1.592,2.402 c 1.485,-0.945 2.78,-1.431 4.67,-1.431 2.646,0 4.319,1.404 4.319,3.374 0,1.188 -0.593,1.916 -2.214,2.537 l -1.862,0.703 c -2.159,0.809 -3.293,1.943 -3.293,4.129 0,3.509 3.293,6.208 7.504,6.208 2.106,0 4.13,-0.647 5.452,-1.753 L 0,0 Z"
             inkscape:connector-curvature="0" /></g></g></g></g></svg>